<svg width="80" height="40" viewBox="0 0 80 40" xmlns="http://www.w3.org/2000/svg" xmlns:xlink="http://www.w3.org/1999/xlink">
    <defs>
        <filter x="-6.6%" y="-15.5%" width="113.3%" height="131%" filterUnits="objectBoundingBox" id="a">
            <feOffset in="SourceAlpha" result="shadowOffsetOuter1"/>
            <feGaussianBlur stdDeviation="1.5" in="shadowOffsetOuter1" result="shadowBlurOuter1"/>
            <feColorMatrix values="0 0 0 0 0 0 0 0 0 0 0 0 0 0 0 0 0 0 0.5 0" in="shadowBlurOuter1"/>
        </filter>
        <path d="M14.5 0C22.508 0 29 6.492 29 14.5c0 .082 0 .163-.002.244l.118-.053 3.902-1.585c1.83-.744 3.458-.974 4.873-.56l.247.08.259.098c.356.146.688.328.995.542.18-.113.378-.2.593-.256l.164-.035 2.788-.496a2.15 2.15 0 0 1 2.46 1.581l.032.15.37 2.038 1.937-6.028a2.15 2.15 0 0 1 1.497-1.422l.165-.037.939-.17a2.15 2.15 0 0 1 1.941.632l.11.126 1.614 1.982a2.13 2.13 0 0 1 .331-.117l.178-.038.154-.022 3.237-.34a2.15 2.15 0 0 1 1.943.846l.092.133.28.437.182-.485a2.15 2.15 0 0 1 1.459-1.32l.168-.038.16-.023 3.237-.34c1.618-.17 2.81 1.439 2.229 2.918l-.062.142-2.986 6.284.378 3.596a2.15 2.15 0 0 1-1.613 2.31l-.148.031-.152.021-2.902.305a2.15 2.15 0 0 1-2.342-1.76l-.021-.153-.191-1.813-2.4.444a2.15 2.15 0 0 1-1.908-.59l-.12-.13-.307-.36-1.212.223.025.085.033.15.39 2.137a2.15 2.15 0 0 1-1.589 2.47l-.15.032-7.559 1.344a2.15 2.15 0 0 1-2.459-1.582l-.032-.15-.661-3.625c-.32.237-.674.46-1.06.668l-.295.153-.181.087.58 1.363a2.15 2.15 0 0 1-.886 2.694l-.142.076-.141.063-2.619 1.064a2.15 2.15 0 0 1-2.72-1.007l-.067-.144-3.724-8.76C26.637 24.618 21.08 29 14.5 29 6.492 29 0 22.508 0 14.5S6.492 0 14.5 0z" id="b"/>
    </defs>
    <g fill="none" fill-rule="evenodd">
        <path d="M0 0h80v40H0z"/>
        <g fill-rule="nonzero" transform="translate(5 5)">
            <use fill="#000" filter="url(#a)" xlink:href="#b"/>
            <use fill="#FFF" xlink:href="#b"/>
        </g>
        <path d="M38.827 20.097c1.497-.608 2.707-.757 3.597-.444.888.313 1.532.965 1.97 1.993.436 1.027.454 1.933.055 2.77-.4.837-1.363 1.57-2.86 2.178l-1.284.52 1.424 3.351-2.618 1.064-4.186-9.847zm9.487-.501 1.525 8.364 4.77-.848.39 2.137-7.56 1.344-1.914-10.502 2.789-.495zm14.813-1.644L65.718 22l1.693-4.498 3.237-.34-3.245 6.83.44 4.196-2.9.305-.438-4.163-4.616-6.038 3.238-.34zm-7.406-2.246L63 24.648l-3.177.586-1.112-1.305-3.721.687-.543 1.61-3.174.587 3.511-10.936.938-.171zm-14.72 6.09c-.394-.112-.86-.06-1.387.153l-1.284.521 1.188 2.793 1.284-.521c.526-.214.893-.5 1.09-.853.211-.378.225-.808.04-1.244-.185-.436-.507-.73-.93-.85zm14.841-2.889-.997 3.98 3.384-.626-2.387-3.354z" fill="#E6002E"/>
        <path d="M19.5 7.5c-6.627 0-12 5.373-12 12s5.373 12 12 12 12-5.373 12-12-5.373-12-12-12z" stroke="#001A58" fill="#FFF" fill-rule="nonzero"/>
        <path d="M25.395 26.294c.3.63.586 1.674.858 3.13a11.981 11.981 0 0 1-4.065 1.774 5.765 5.765 0 0 1-.432-.112c-1.358-.229-2.145-.854-3.163-1.663.41-.735 1.089-1.65 2.035-2.744 2.657-.257 4.246-.385 4.767-.385zM26.792 13.808c.51 0 1.782.382 3.815 1.145a11.945 11.945 0 0 1 .892 4.708c-1.213.913-2.622 1.664-3.74 1.969-.536-.91-1.277-2.214-2.223-3.911.478-1.76.897-3.064 1.256-3.911zM19.5 7.5c1.364 0 2.675.228 3.898.647.234.816.31 1.292.31 1.978-.496.058-1.282.142-2.095.223l-.544.053c-1.084.104-2.115.19-2.476.19-.48-.417-1.586-1.118-3.32-2.103l.05-.241c1.301-.483 2.708-.747 4.177-.747z" fill="#001A58" fill-rule="nonzero"/>
        <path d="M12.77 29.483c.3.208-.35-1.055-1.95-3.789-1.355-.803-2.133-1.32-2.334-1.552-.301-.347 1.794 3.311 4.283 5.34zM12.77 16.684c.094 2.166.285 3.893.572 5.183 1.01.288 3.227 1.032 4.761.894.36-.443 1.446-2.277 2.275-4.605-.535-.636-2.275-2.87-3.13-3.596-.922.253-2.414.961-4.479 2.124z" fill="#001A58"/>
        <path stroke="#001A58" d="m20.094 18.338 5.831-.619M28.19 20.741l-2.976 5.913M17.431 21.569l3.49 5.617M13.573 21.63l-3.293 4.664M11.927 28.527l7.573.978M18.593 10.163l-1.73 5.663M8.732 14.56l5.211 2.796M23.335 9.812 27.941 15"/>
        <path fill="#001958" d="m48.313 8.229-1.5 2.576h3z"/>
        <path d="M44.122 13.524c0 .597-.487 1.08-1.089 1.08a1.084 1.084 0 0 1-1.089-1.08c0-.596.488-1.08 1.09-1.08.6 0 1.088.484 1.088 1.08" fill="#E6002E"/>
        <path fill="#001958" d="m37.516 12.57-3.722-1.324.63-1.742 1.983.705 1.05-2.818 2.855 1.014.732-1.96 1.75.642-1.373 3.678-2.854-1.014z"/>
    </g>
</svg>
