<svg width="152" height="48" viewBox="0 0 152 48" xmlns="http://www.w3.org/2000/svg" xmlns:xlink="http://www.w3.org/1999/xlink">
    <defs>
        <path id="a" d="M0 0h26.775v14.505H0z"/>
        <path id="c" d="M0 0h26.775v14.444H0z"/>
    </defs>
    <g fill="none" fill-rule="evenodd">
        <path d="M0 0h152v48H0z"/>
        <path d="m115.484 13.255-7.446 10.657 7.71 11.815h-5.082l-7.242-11.265 7.592-11.207h4.468zm-12.644 0v22.472h-4.585V13.255h4.585zm28.525 0-.584 3.301h-8.731v6.226h8.323l-.555 3.302h-7.768v9.643h-4.585V13.255h13.9zm10.809 0L150 35.727h-4.73l-4.206-12.452c-.613-1.796-1.08-3.504-1.46-4.981-.38 1.477-.847 3.185-1.46 4.98l-1.518 4.46h5.168l-.554 3.244h-5.695l-1.606 4.749h-4.06l7.798-22.472h4.497zM75.06 32.23l1.248 2.143h-2.496l1.248-2.143zm-35.39-18.785.936.344-.734 1.967-1.526-.542-.562 1.507-1.991-.708.336-.931 1.061.377.562-1.507 1.527.542.391-1.049z" fill="#001958"/>
        <path d="M43.123 17.059c2.437-.72 4.352-.755 5.69-.106 1.335.649 2.234 1.796 2.747 3.509.514 1.712.394 3.16-.368 4.427-.762 1.268-2.385 2.276-4.823 2.995l-2.09.616 1.674 5.583-4.263 1.258-4.921-16.408zm14.896.79 1.008 13.598 7.589-.554.257 3.475-12.024.876-1.265-17.072 4.435-.323zm23.401-.138 3.383 6.891 3.382-6.891h5.11l-6.188 10.35v6.768h-4.582v-6.714L76.31 17.71h5.111zm12.621 12.302.936.344-.734 1.967-1.526-.542-.562 1.507-1.991-.708.337-.931 1.06.377.563-1.508 1.526.543.391-1.049zm-42.751.749v1.778h-2.965v-1.778h2.965zm18.935-17.876 9.897 15.484-5.057.403-1.523-2.27-5.923.473-1.112 2.479-5.053.403L68.732 13l1.493-.115zM46.24 20.132c-.597-.245-1.334-.24-2.19.013l-2.092.616 1.396 4.654 2.09-.617c.858-.252 1.478-.648 1.843-1.177.392-.567.485-1.251.267-1.978-.218-.726-.672-1.248-1.314-1.511zm23.65-2.118-2.21 6.179 5.386-.43-3.177-5.75zm9.144-4.57c.602 0 1.09.484 1.09 1.08 0 .597-.488 1.08-1.09 1.08a1.084 1.084 0 0 1-1.089-1.08c0-.596.488-1.08 1.09-1.08z" fill="#E6002E"/>
        <g transform="translate(1.589 4)">
            <mask id="b" fill="#fff">
                <use xlink:href="#a"/>
            </mask>
            <path fill="#001958" mask="url(#b)" d="M1.285 1.274H25.49V13.5l1.285 1.006V0H0v14.505l1.285-1.006z"/>
        </g>
        <g transform="translate(1.589 30.556)">
            <mask id="d" fill="#fff">
                <use xlink:href="#c"/>
            </mask>
            <path fill="#001958" mask="url(#d)" d="M25.49 13.17H1.285V1L0 0v14.444h26.775V0L25.49 1z"/>
        </g>
        <path fill="#FFF" d="m29.952 19.748-2.872-2.25V5.276H2.874v12.224L0 19.748l1.55 5.085-1.475 4.545 2.799 2.178v12.17H27.08v-12.17l2.798-2.178-1.474-4.545z"/>
        <path fill="#EC193A" d="M4.742 7.127h20.47v8.91l.724.568V6.408H4.018v10.197l.724-.568zM25.212 41.872H4.742V33.01l-.725-.564v10.147h21.918V32.445l-.723.564z"/>
        <path fill="#001958" d="m14.976 22.933-1.702-9.63-7.032 2.404 7.635-3.9 1.099 7.021 1.1-7.021 7.634 3.9-7.03-2.403z"/>
        <path fill="#001958" d="m14.976 15.99-.548-5.508-5.386 3.036 5.934-4.645 5.935 4.645-5.386-3.036z"/>
        <path fill="#001958" d="m18.457 15.716-2.578 5.98 1.63-7.231zM12.443 14.465l1.631 7.231-2.579-5.98zM26.533 24.85l1.394-4.575-2.227-3.01 3.482 2.724-1.479 4.851 1.396 4.302-2.947 2.294 1.694-2.54z"/>
        <path fill="#001958" d="m19.885 25.306 5.367 1.793-.703-2.275 1.482-4.577-.392-1.564 1.228 1.809-1.389 4.275 1.267 4.002-1.676 2.882.521-3.142z"/>
        <path fill="#001958" d="m20.62 24.717 1.98-.11 2.329-3.59-1.412 3.93.243.78zM22.656 21.595l-3.833.485-.966 3.414.328-4.44 6.992-2.08-2.196 1.351zM.771 19.988l3.481-2.724-2.227 3.01 1.395 4.577-1.313 4.046 1.695 2.538-2.949-2.293 1.395-4.302z"/>
        <path fill="#001958" d="m3.207 28.769 1.268-4.001-1.39-4.275 1.23-1.81-.393 1.564 1.482 4.577-.703 2.275 5.366-1.792-5.705 3.202.522 3.142z"/>
        <path fill="#001958" d="m7.353 24.607 1.98.11-3.14 1.01.243-.781-1.412-3.928zM11.768 21.053l.327 4.441-.965-3.414-3.833-.485-.326-1.27-2.196-1.35zM17.423 36.898l2.104-1.607-.359 1.576-4.192 3.262-4.192-3.262-.36-1.576 2.105 1.607z"/>
        <path fill="#001958" d="m18.065 28.044-2.95 2.495 5.14 2.491 2.452-1.682.332-2.399-2.557-2.49 3.874 2.52-.488 3.232-3.11 2.364-.588 1.32-.573-1.556-4.621-1.87-4.62 1.87-.574 1.557-.587-1.32-3.11-2.365-.488-3.233 3.872-2.518-2.557 2.49.333 2.398 2.452 1.682 5.14-2.49-2.95-2.496-.876-1.436 1.506.9h4.919l1.506-.9z"/>
    </g>
</svg>
