<svg width="84" height="56" viewBox="0 0 84 56" xmlns="http://www.w3.org/2000/svg" xmlns:xlink="http://www.w3.org/1999/xlink">    
    <g fill="none" fill-rule="evenodd">        
        <g stroke="#FFF" stroke-width="1.7">
            <path d="M34.125 31.053c.406-3.606 1.276-6.303 2.608-8.09 1.998-2.679 7.358-4.29 9.684-3.795 1.145.244 5.174.579 7.991 5.375 2.818 4.796 1.444 9.26-.646 9.26s-4.834-.517-5.725-.517-8.074-2.233-9.685-2.233h-4.227z"/>
            <path d="M44.275 18.69c.472-1.314 1.301-1.862 2.487-1.643 1.185.219 1.755.896 1.71 2.032" stroke-linejoin="bevel"/>
            <path d="M33.903 31.205 28 35.719c2.785-.428 4.752-.428 5.903 0 1.725.64 3.684 1.64 4.526 2.461.843.822 5.803 2.601 12.321-4.443" stroke-linejoin="round"/>
            <path d="M47.911 33.803c1.96-7.247 1.274-11.866-2.06-13.858-4.186.872-6.637 4.83-7.351 11.875"/>
        </g>
    </g>
</svg>
