<svg width="84" height="56" viewBox="0 0 84 56" xmlns="http://www.w3.org/2000/svg" xmlns:xlink="http://www.w3.org/1999/xlink">    
    <g fill="none" fill-rule="evenodd">        
        <g stroke="#FFF" stroke-width="1.7">
            <path d="M33.874 14.85h17.252l-.318 11.223a8.287 8.287 0 0 1-2.514 5.725A8.287 8.287 0 0 1 42.5 34.15a8.287 8.287 0 0 1-5.794-2.352 8.287 8.287 0 0 1-2.514-5.725l-.318-11.223z"/>
            <path stroke-linecap="round" d="m42.5 19 1.081 2.304 2.419.372-1.75 1.792.413 2.532-2.163-1.196L40.337 26l.413-2.532L39 21.676l2.419-.372z"/>
            <path d="M33.49 18.312c-2.327-.49-3.49.668-3.49 3.476 0 2.809 1.54 5.067 4.622 6.775M51.255 18.106c2.497-.476 3.745.65 3.745 3.378s-1.422 4.91-4.265 6.547M35.85 37.85h13.3v3.3h-13.3z"/>
            <path d="M44.073 34c-.476 1.88.442 3.213 2.754 4M40.705 34c.476 1.88-.442 3.213-2.754 4"/>
        </g>
    </g>
</svg>
