<svg width="56" height="56" viewBox="0 0 56 56" xmlns="http://www.w3.org/2000/svg" xmlns:xlink="http://www.w3.org/1999/xlink">
    <defs>
        <circle id="a" cx="28" cy="28" r="28"/>
        <path id="c" d="M0 21.778h37.333V0H0z"/>
    </defs>
    <g fill="none" fill-rule="evenodd">
        <mask id="b" fill="#fff">
            <use xlink:href="#a"/>
        </mask>
        <use fill="#FFF" xlink:href="#a"/>
        <g mask="url(#b)">
            <path fill="#FEFEFE" d="M9.333 39.045h37.334V17.267H9.333z"/>
            <path fill="#4A9944" d="M9.333 24.542h37.334v-7.275H9.333z"/>
            <path fill="#BB1C22" d="M9.333 39.045h37.334V31.77H9.333zM27.604 25.854l.075 5.149.32.37.323-.37.074-5.149-.397-.321z"/>
            <g transform="translate(9.333 17.267)">
                <path d="M19.458 7.722a.546.546 0 0 1-.75.177c-.013-.009-.028-.018-.042-.03a.544.544 0 0 1-.763-.105l-.03-.042a.472.472 0 0 0 .793.445.47.47 0 0 0 .792-.445M19.656 8.44a3.217 3.217 0 0 1-2.97 5.097 2.983 2.983 0 0 0 2.97-5.098" fill="#BB1C22"/>
                <path d="M17.676 8.44a3.217 3.217 0 0 0 2.97 5.097 2.982 2.982 0 0 1-2.97-5.098M20.027 8.34a3.218 3.218 0 0 1 .544 4.702 2.548 2.548 0 0 0-.544-4.702" fill="#BB1C22"/>
                <path d="M17.305 8.34a3.218 3.218 0 0 0-.544 4.702 2.548 2.548 0 0 1 .544-4.702" fill="#BB1C22"/>
                <path d="M2.29 7.033h-.509v-.582h.68v-.387h.17v.775H2.8v-.775h.169v.775h.17v-.775h.17v.969H2.46v-.388h-.509v.194h.34v.194zM.086 6.257H2.29v-.194H.085v.194zm.34.776h.168v-.194H.424v.194zm-.34 0h.17v-.388h.509v.388h.849v-.582h-.51v.194h.339v.194h-.51v-.388H.086v.582zM5.685 7.033h-.51v-.582h.678v-.387h.171v.775h.17v-.775h.169v.775h.17v-.775h.17v.969h-.85v-.388h-.508v.194h.34v.194zm-2.206-.776h2.206v-.194H3.479v.194zm.338.776h.17v-.194h-.17v.194zm-.338 0h.17v-.388h.508v.388h.849v-.582h-.509v.194h.34v.194h-.51v-.388h-.848v.582zM9.079 7.033h-.51v-.582h.679v-.387h.17v.775h.169v-.775h.17v.775h.17v-.775h.17v.969h-.85v-.388H8.74v.194h.34v.194zm-2.206-.776h2.206v-.194H6.873v.194zm.338.776h.17v-.194h-.17v.194zm-.338 0h.17v-.388h.508v.388H8.4v-.582H7.89v.194h.339v.194H7.72v-.388h-.848v.582zM12.472 7.033h-.509v-.582h.679v-.387h.17v.775h.17v-.775h.17v.775h.169v-.775h.17v.969h-.85v-.388h-.509v.194h.34v.194zm-2.205-.776h2.205v-.194h-2.205v.194zm.34.776h.169v-.194h-.17v.194zm-.34 0h.169v-.388h.509v.388h.849v-.582h-.51v.194h.34v.194h-.509v-.388h-.848v.582zM15.866 7.033h-.51v-.582h.68v-.387h.17v.775h.17v-.775h.169v.775h.169v-.775h.17v.969h-.847v-.388h-.51v.194h.339v.194zm-2.205-.776h2.205v-.194h-2.205v.194zm.338.776h.17v-.194h-.17v.194zm-.338 0h.169v-.388h.509v.388h.849v-.582h-.51v.194h.34v.194h-.508v-.388h-.85v.582zM19.26 7.033h-.51v-.582h.68v-.387h.17v.775h.17v-.775h.17v.775h.168v-.775h.17v.969h-.847v-.388h-.51v.194h.339v.194zm-2.206-.776h2.206v-.194h-2.206v.194zm.34.776h.168v-.194h-.168v.194zm-.34 0h.17v-.388h.509v.388h.849v-.582h-.51v.194h.34v.194h-.51v-.388h-.848v.582zM22.654 7.033h-.51v-.582h.68v-.387h.169v.775h.17v-.775h.17v.775h.169v-.775h.17v.969h-.848v-.388h-.509v.194h.34v.194zm-2.206-.776h2.206v-.194h-2.206v.194zm.339.776h.17v-.194h-.17v.194zm-.339 0h.17v-.388h.51v.388h.847v-.582h-.508v.194h.34v.194h-.51v-.388h-.849v.582zM26.048 7.033h-.509v-.582h.679v-.387h.169v.775h.17v-.775h.17v.775h.17v-.775h.169v.969h-.848v-.388h-.51v.194h.34v.194zm-2.206-.776h2.206v-.194h-2.206v.194zm.339.776h.17v-.194h-.17v.194zm-.339 0h.17v-.388h.508v.388h.85v-.582h-.51v.194h.34v.194h-.509v-.388h-.849v.582zM29.441 7.033h-.508v-.582h.678v-.387h.17v.775h.17v-.775h.17v.775h.168v-.775h.171v.969h-.849v-.388h-.508v.194h.338v.194zm-2.205-.776h2.205v-.194h-2.205v.194zm.339.776h.17v-.194h-.17v.194zm-.339 0h.17v-.388h.508v.388h.85v-.582h-.51v.194h.34v.194h-.509v-.388h-.849v.582zM32.836 7.033h-.51v-.582h.68v-.387h.168v.775h.17v-.775h.17v.775h.17v-.775h.17v.969h-.849v-.388h-.508v.194h.339v.194zm-2.206-.776h2.206v-.194H30.63v.194zm.34.776h.169v-.194h-.17v.194zm-.34 0h.17v-.388h.509v.388h.847v-.582h-.508v.194h.34v.194h-.509v-.388h-.849v.582zM36.23 7.033h-.51v-.582h.68v-.387h.168v.775h.171v-.775h.169v.775h.17v-.775h.17v.969H36.4v-.388h-.509v.194h.34v.194zm-2.206-.776h2.206v-.194h-2.206v.194zm.34.776h.169v-.194h-.169v.194zm-.34 0h.17v-.388h.509v.388h.848v-.582h-.509v.194h.34v.194h-.51v-.388h-.848v.582z" fill="#FEFEFE"/>
                <mask id="d" fill="#fff">
                    <use xlink:href="#c"/>
                </mask>
                <path d="M1.782 7.491H3.31v-.388H1.782v.388zm-1.698 0h1.528v-.388H.084v.388zM5.175 7.491h1.527v-.388H5.175v.388zm-1.697 0h1.528v-.388H3.478v.388zM8.57 7.491h1.527v-.388H8.57v.388zm-1.697 0H8.4v-.388H6.873v.388zM11.963 7.491h1.527v-.388h-1.527v.388zm-1.697 0h1.527v-.388h-1.527v.388zM15.357 7.491h1.528v-.388h-1.528v.388zm-1.696 0h1.527v-.388H13.66v.388zM18.751 7.491h1.528v-.388h-1.528v.388zm-1.697 0h1.528v-.388h-1.528v.388zM22.145 7.491h1.527v-.388h-1.527v.388zm-1.697 0h1.527v-.388h-1.527v.388zM25.54 7.491h1.526v-.388H25.54v.388zm-1.698 0h1.527v-.388h-1.527v.388zM28.933 7.491h1.527v-.388h-1.527v.388zm-1.697 0h1.527v-.388h-1.527v.388zM32.326 7.491h1.528v-.388h-1.528v.388zm-1.696 0h1.527v-.388H30.63v.388zM35.72 7.491h1.528v-.388h-1.527v.388zm-1.697 0h1.528v-.388h-1.528v.388zM2.29 15.818h-.509v-.582h.68v-.387h.17v.776H2.8v-.776h.169v.776h.17v-.776h.17v.97H2.46v-.388h-.509v.194h.34v.193zm-2.205-.775H2.29v-.194H.085v.194zm.34.775h.168v-.193H.424v.193zm-.34 0h.17v-.387h.509v.387h.849v-.582h-.51v.195h.339v.194h-.51v-.389H.086v.582zM5.685 15.818h-.51v-.582h.678v-.387h.171v.776h.17v-.776h.169v.776h.17v-.776h.17v.97h-.85v-.388h-.508v.194h.34v.193zm-2.206-.775h2.206v-.194H3.479v.194zm.338.775h.17v-.193h-.17v.193zm-.338 0h.17v-.387h.508v.387h.849v-.582h-.509v.195h.34v.194h-.51v-.389h-.848v.582zM9.079 15.818h-.51v-.582h.679v-.387h.17v.776h.169v-.776h.17v.776h.17v-.776h.17v.97h-.85v-.388H8.74v.194h.34v.193zm-2.206-.775h2.206v-.194H6.873v.194zm.338.775h.17v-.193h-.17v.193zm-.338 0h.17v-.387h.508v.387H8.4v-.582H7.89v.195h.339v.194H7.72v-.389h-.848v.582zM12.472 15.818h-.509v-.582h.679v-.387h.17v.776h.17v-.776h.17v.776h.169v-.776h.17v.97h-.85v-.388h-.509v.194h.34v.193zm-2.205-.775h2.205v-.194h-2.205v.194zm.34.775h.169v-.193h-.17v.193zm-.34 0h.169v-.387h.509v.387h.849v-.582h-.51v.195h.34v.194h-.509v-.389h-.848v.582zM15.866 15.818h-.51v-.582h.68v-.387h.17v.776h.17v-.776h.169v.776h.169v-.776h.17v.97h-.847v-.388h-.51v.194h.339v.193zm-2.205-.775h2.205v-.194h-2.205v.194zm.338.775h.17v-.193h-.17v.193zm-.338 0h.169v-.387h.509v.387h.849v-.582h-.51v.195h.34v.194h-.508v-.389h-.85v.582zM19.26 15.818h-.51v-.582h.68v-.387h.17v.776h.17v-.776h.17v.776h.168v-.776h.17v.97h-.847v-.388h-.51v.194h.339v.193zm-2.206-.775h2.206v-.194h-2.206v.194zm.34.775h.168v-.193h-.168v.193zm-.34 0h.17v-.387h.509v.387h.849v-.582h-.51v.195h.34v.194h-.51v-.389h-.848v.582zM22.654 15.818h-.51v-.582h.68v-.387h.169v.776h.17v-.776h.17v.776h.169v-.776h.17v.97h-.848v-.388h-.509v.194h.34v.193zm-2.206-.775h2.206v-.194h-2.206v.194zm.339.775h.17v-.193h-.17v.193zm-.339 0h.17v-.387h.51v.387h.847v-.582h-.508v.195h.34v.194h-.51v-.389h-.849v.582zM26.048 15.818h-.509v-.582h.679v-.387h.169v.776h.17v-.776h.17v.776h.17v-.776h.169v.97h-.848v-.388h-.51v.194h.34v.193zm-2.206-.775h2.206v-.194h-2.206v.194zm.339.775h.17v-.193h-.17v.193zm-.339 0h.17v-.387h.508v.387h.85v-.582h-.51v.195h.34v.194h-.509v-.389h-.849v.582zM29.441 15.818h-.508v-.582h.678v-.387h.17v.776h.17v-.776h.17v.776h.168v-.776h.171v.97h-.849v-.388h-.508v.194h.338v.193zm-2.205-.775h2.205v-.194h-2.205v.194zm.339.775h.17v-.193h-.17v.193zm-.339 0h.17v-.387h.508v.387h.85v-.582h-.51v.195h.34v.194h-.509v-.389h-.849v.582zM32.836 15.818h-.51v-.582h.68v-.387h.168v.776h.17v-.776h.17v.776h.17v-.776h.17v.97h-.849v-.388h-.508v.194h.339v.193zm-2.206-.775h2.206v-.194H30.63v.194zm.34.775h.169v-.193h-.17v.193zm-.34 0h.17v-.387h.509v.387h.847v-.582h-.508v.195h.34v.194h-.509v-.389h-.849v.582zM36.23 15.818h-.51v-.582h.68v-.387h.168v.776h.171v-.776h.169v.776h.17v-.776h.17v.97H36.4v-.388h-.509v.194h.34v.193zm-2.206-.775h2.206v-.194h-2.206v.194zm.34.775h.169v-.193h-.169v.193zm-.34 0h.17v-.387h.509v.387h.848v-.582h-.509v.195h.34v.194h-.51v-.389h-.848v.582zM1.782 14.717H3.31v-.387H1.782v.387zm-1.698 0h1.528v-.387H.084v.387zM5.175 14.717h1.527v-.387H5.175v.387zm-1.697 0h1.528v-.387H3.478v.387zM8.57 14.717h1.527v-.387H8.57v.387zm-1.697 0H8.4v-.387H6.873v.387zM11.963 14.717h1.527v-.387h-1.527v.387zm-1.697 0h1.527v-.387h-1.527v.387zM15.357 14.717h1.528v-.387h-1.528v.387zm-1.696 0h1.527v-.387H13.66v.387zM18.751 14.717h1.528v-.387h-1.528v.387zm-1.697 0h1.528v-.387h-1.528v.387zM22.145 14.717h1.527v-.387h-1.527v.387zm-1.697 0h1.527v-.387h-1.527v.387zM25.54 14.717h1.526v-.387H25.54v.387zm-1.698 0h1.527v-.387h-1.527v.387zM28.933 14.717h1.527v-.387h-1.527v.387zm-1.697 0h1.527v-.387h-1.527v.387zM32.326 14.717h1.528v-.387h-1.528v.387zm-1.696 0h1.527v-.387H30.63v.387zM35.72 14.717h1.528v-.387h-1.527v.387zm-1.697 0h1.528v-.387h-1.528v.387z" fill="#FEFEFE" mask="url(#d)"/>
            </g>
        </g>
    </g>
</svg>
