<svg width="84" height="56" viewBox="0 0 84 56" xmlns="http://www.w3.org/2000/svg" xmlns:xlink="http://www.w3.org/1999/xlink">    
    <g fill="none" fill-rule="evenodd">        
        <g stroke="#FFF" stroke-width="2">
            <path d="M45.2 15c.157 0 .31.062.423.176l1.425 1.424h2.951c.13 0 .256.042.36.12l6.402 4.801a.595.595 0 0 1 .176.747l-3.2 6.4a.598.598 0 0 1-.806.267l-2.332-1.163V39.6a.598.598 0 0 1-.6.6H34a.598.598 0 0 1-.6-.6V27.77l-2.331 1.166a.595.595 0 0 1-.804-.268l-3.2-6.4a.601.601 0 0 1 .176-.748l6.4-4.8a.598.598 0 0 1 .36-.12h2.951l1.424-1.424z"/>
            <path d="M36.537 15.6 42 21.858l5.462-6.258M41.999 21.858V27.6"/>
        </g>
    </g>
</svg>
