<svg width="84" height="56" viewBox="0 0 84 56" xmlns="http://www.w3.org/2000/svg">
    <g fill="none" fill-rule="evenodd">
        <path d="M0 0h84v56H0z"/>
        <path d="M15.847 0H82L67.153 56H1z"/>
        <path d="M26 12h32v32H26z"/>
        <g stroke="#666" stroke-width="1.7">
            <path d="M45.2 14.85c.197 0 .388.078.53.22l1.38 1.38H50l6.85 4.95a.744.744 0 0 1 .22.935l-3.2 6.4a.748.748 0 0 1-1.006.335l-2.115-1.056V39.6a.748.748 0 0 1-.75.75H34a.748.748 0 0 1-.75-.75V28.013l-2.114 1.058a.744.744 0 0 1-1.006-.336l-3.2-6.4a.751.751 0 0 1 .22-.935l6.401-4.8 3.34-.15 1.38-1.38a.75.75 0 0 1 .53-.22z"/>
            <path d="M36.537 15.6 42 21.858l5.462-6.258M41.999 21.858V27.6"/>
        </g>
    </g>
</svg>
