<svg width="84" height="56" viewBox="0 0 84 56" xmlns="http://www.w3.org/2000/svg">
    <g fill="none" fill-rule="evenodd">
        <path d="M0 0h84v56H0z"/>
        <path d="M15.847 0H82L67.153 56H1z"/>
        <path d="M26 12h32v32H26z"/>
        <g stroke="#666" stroke-width="1.7">
            <path d="M34.344 31.692c.42-3.77 1.32-6.59 2.7-8.457 2.07-2.801 7.622-4.486 10.03-3.969 1.187.255 5.36.605 8.278 5.62 2.917 5.014 1.495 9.68-.67 9.68s-5.006-.54-5.93-.54c-.922 0-8.362-2.334-10.03-2.334h-4.378z"/>
            <path d="M44.856 18.767c.49-1.374 1.348-1.947 2.576-1.718 1.227.229 1.818.937 1.772 2.124" stroke-linejoin="bevel"/>
            <path d="M34.113 31.85 28 36.57c2.884-.448 4.922-.448 6.113 0 1.788.67 3.816 1.714 4.689 2.573.872.859 6.01 2.719 12.76-4.645" stroke-linejoin="round"/>
            <path d="M48.622 34.567c2.03-7.577 1.32-12.406-2.133-14.488-4.336.911-6.874 5.05-7.614 12.414"/>
        </g>
    </g>
</svg>
