<svg width="84" height="56" viewBox="0 0 84 56" xmlns="http://www.w3.org/2000/svg">
    <g fill="none" fill-rule="evenodd">
        <path d="M0 0h84v56H0z"/>
        <path d="M15.847 0H82L67.153 56H1z"/>
        <path d="M26 12h32v32H26z"/>
        <g stroke="#666" stroke-width="1.7">
            <path d="M53.743 42V25.25M51 15h.674A3.326 3.326 0 0 1 55 18.326V25h-4V15zM47 15h4v7h-4z"/>
            <path d="M44.446 14h1.845c.613 0 1.109.496 1.109 1.109v6.782c0 .613-.496 1.109-1.109 1.109h-1.845a3.611 3.611 0 0 1-3.6-3.33 14.99 14.99 0 0 1 0-2.34 3.611 3.611 0 0 1 3.6-3.33z"/>
            <g transform="matrix(-1 0 0 1 42 25)">
                <path d="M11.415 17.67V11M9 1h.674A3.326 3.326 0 0 1 13 4.326V11H9V1z"/>
                <rect x="6" y="1" width="3" height="7" rx="1.109"/>
                <path d="M3.314 0h1.577C5.504 0 6 .496 6 1.109V7.89C6 8.504 5.504 9 4.891 9H3.314a3.256 3.256 0 0 1-3.24-2.949 16.44 16.44 0 0 1 0-3.102A3.256 3.256 0 0 1 3.313 0z"/>
            </g>
        </g>
    </g>
</svg>
