<svg width="84" height="56" viewBox="0 0 84 56" xmlns="http://www.w3.org/2000/svg" xmlns:xlink="http://www.w3.org/1999/xlink">    
    <g fill="none" fill-rule="evenodd">        
        <g transform="translate(29 15)" stroke="#FFF" stroke-width="1.7">
            <circle cx="13.5" cy="13.5" r="12.65"/>
            <path d="M13.077 7.27 7.27 11.45l2.448 7.242h6.898l2.077-7.243zM18.692 11.844h3.975l3.174 3.442M22.266 11.844l1.619-5.75"/>
            <path d="m16.615 17.692 1.946 3.116 5.82-1.039M18.692 20.808l-2.077 4.741M9.717 18.692l-1.41 2.116 2.078 5.154M8.308 20.808l-5.644-1.039M8.27 11.45l-3.157-.027-3.434 4.589M5.047 11.423l-.825-6.231M13.5 8.27V4.263L9.346 2.038M13.5 4.115l4.154-2.077"/>
        </g>
    </g>
</svg>
