<svg width="56" height="56" viewBox="0 0 56 56" xmlns="http://www.w3.org/2000/svg" xmlns:xlink="http://www.w3.org/1999/xlink">
    <defs>
        <circle id="a" cx="28" cy="28" r="28"/>
    </defs>
    <g fill="none" fill-rule="evenodd">
        <mask id="b" fill="#fff">
            <use xlink:href="#a"/>
        </mask>
        <use fill="#FFF" xlink:href="#a"/>
        <g mask="url(#b)">
            <path fill="#FEFEFE" d="M-4.667 46.978h65.334V8.867H-4.667z"/>
            <path fill="#060101" d="m38.57 15.15 2.422 3.634-1.321.88-2.422-3.634zM41.432 19.445l2.422 3.633-1.321.88-2.422-3.632zM40.552 13.83l5.285 7.927-1.321.88-5.286-7.927zM42.533 12.508l2.424 3.633-1.323.88-2.422-3.632zM45.396 16.802l2.422 3.634-1.321.88-2.422-3.633zM13.466 31.886l5.283 7.928-1.32.88-5.284-7.927zM11.483 33.209l2.422 3.632-1.32.88-2.423-3.632zM14.346 37.503l2.422 3.632-1.321.882-2.422-3.634zM9.502 34.53l5.283 7.927-1.32.88L8.18 35.41zM12.144 23.078l5.285-7.928 1.322.882-5.286 7.926zM10.162 21.757l5.286-7.928 1.32.88-5.284 7.929zM8.18 20.436l5.286-7.927 1.32.88-5.284 7.928zM37.25 39.814l2.421-3.632 1.322.88-2.423 3.633zM40.111 35.52l2.422-3.633 1.322.88-2.423 3.634zM39.23 41.135l2.423-3.632 1.321.88-2.422 3.634zM42.094 36.841l2.422-3.632 1.321.88-2.422 3.633zM41.213 42.458l2.422-3.634 1.321.88-2.422 3.634zM44.075 38.162l2.422-3.632 1.322.88-2.422 3.634z"/>
            <path d="M20.072 22.637a8.746 8.746 0 0 0-.101.155l.101-.155" fill="#AB1E38"/>
            <path d="M33.285 19.995c-4.378-2.918-10.295-1.736-13.213 2.642A4.765 4.765 0 1 0 28 27.922a4.764 4.764 0 1 1 7.926 5.287 9.528 9.528 0 0 0-2.641-13.214" fill="#AB1E38"/>
            <path d="M20.072 22.637A4.763 4.763 0 1 0 28 27.923a4.765 4.765 0 0 1 7.926 5.287c-2.917 4.376-8.834 5.56-13.212 2.64a9.528 9.528 0 0 1-2.642-13.213" fill="#1C3470"/>
        </g>
    </g>
</svg>
