<svg width="48" height="48" viewBox="0 0 48 48" xmlns="http://www.w3.org/2000/svg">
    <g fill="none" fill-rule="evenodd">
        <path d="M0 0h48v48H0z"/>
        <g fill="#000" fill-rule="nonzero">
            <path d="M24 3.85C12.871 3.85 3.85 12.871 3.85 24c0 11.129 9.021 20.15 20.15 20.15 11.129 0 20.15-9.021 20.15-20.15 0-11.129-9.021-20.15-20.15-20.15zm0 2.3c9.858 0 17.85 7.992 17.85 17.85S33.858 41.85 24 41.85 6.15 33.858 6.15 24 14.142 6.15 24 6.15z"/>
            <path d="M43.016 22.915v2.3H5v-2.3z"/>
            <path d="m22.57 4.324 1.86 1.352c-8.377 11.517-8.47 23.522-.25 36.261l.28.43-1.92 1.266c-8.921-13.536-9.017-26.587-.259-38.908l.289-.401z"/>
            <path d="m24.67 4.324-1.86 1.352c8.378 11.517 8.47 23.522.25 36.261l-.28.43 1.92 1.266c8.921-13.536 9.017-26.587.26-38.908l-.29-.401z"/>
        </g>
    </g>
</svg>
