<svg width="48" height="48" viewBox="0 0 48 48" xmlns="http://www.w3.org/2000/svg">
    <g fill="none" fill-rule="evenodd">
        <path d="M0 0h48v48H0z"/>
        <path d="M44 13H5v34h39V13zm-2 2v30H7V15h35z" fill="#000" fill-rule="nonzero"/>
        <path d="M17.478 5v2H7.924l.001 8h-2V5h11.553zm25.597 0v10h-2l-.001-8h-9.645V5h11.646z" fill="#000" fill-rule="nonzero"/>
        <path fill="#000" fill-rule="nonzero" d="M7.696 6.044 6.582 7.705l3.693 2.475v3.695h2V9.113zM41.161 6.044l1.114 1.661-3.693 2.475v3.695h-2V9.113zM18.1 20v3c0 3.8 2.762 6.867 6.176 6.996L24.5 30h.925c3.442 0 6.277-2.986 6.396-6.753l.004-.247v-3h2v3c0 4.864-3.608 8.853-8.147 8.996l-.253.004H24.5c-4.573 0-8.264-3.9-8.396-8.73L16.1 23v-3h2zM25.5 4.011v9.864h-2V4.01z"/>
        <path fill="#000" fill-rule="nonzero" d="m18.917 7.874 5.552-6.303 5.646 5.887-1.443 1.385-4.141-4.318-4.114 4.671z"/>
    </g>
</svg>
