<svg width="48" height="48" viewBox="0 0 48 48" xmlns="http://www.w3.org/2000/svg">
    <g fill="none" fill-rule="evenodd">
        <path d="M0 0h48v48H0z"/>
        <g fill="#000" fill-rule="nonzero">
            <path d="M43.953 43.908v2h-20.63v-2zM33.604 13.566c-3.777 0-7.261 2.712-7.261 7.562 0 2.477.54 3.807 1.846 5.371l.36.419c.857.986 1.16 1.516 1.303 2.532.259 1.823-.07 2.392-1.045 2.392h-3.722c-2.011-.085-3.25 1.02-3.25 3.007v6.82h23.539v-6.82l-.009-.129-.03-.207c-.292-1.693-1.387-2.671-3.074-2.671l-3.789-.001-.042-.029c-.73-.549-.911-1.4-.523-2.776.192-.678.448-1.146 1.02-1.923l.331-.442c1.41-1.873 1.975-3.28 1.975-5.954 0-4.654-3.705-7.151-7.629-7.151zm0 2c2.948 0 5.63 1.807 5.63 5.15 0 2.088-.368 3.101-1.412 4.534l-.328.439c-.826 1.096-1.22 1.768-1.512 2.803-.66 2.34-.103 4.178 1.699 5.216l.232.134h4.348l.129.003c.58.032.851.292.969.978l.014.1v4.746H23.834v-4.82c0-.815.261-1.047 1.209-1.008h3.764c2.406 0 3.435-1.785 3.026-4.672-.196-1.382-.628-2.205-1.577-3.333l-.373-.432c-1.146-1.323-1.54-2.215-1.54-4.276 0-3.62 2.495-5.562 5.261-5.562zM16 6.638v7.099H8.39v-2l5.61-.001V6.638z"/>
            <path d="M39 2v13.996h-2V4H13.161L6 9.359V44h13.562v2H4V8.358L12.497 2z"/>
        </g>
    </g>
</svg>
