<svg width="48" height="48" viewBox="0 0 48 48" xmlns="http://www.w3.org/2000/svg">
    <g fill="none" fill-rule="evenodd">
        <path d="M0 0h48v48H0z"/>
        <g fill="#000" fill-rule="nonzero">
            <path d="M24 .85c-7 0-12.674 5.674-12.674 12.674 0 7 5.674 12.674 12.674 12.674 7 0 12.674-5.675 12.674-12.674C36.674 6.524 31 .85 24 .85zm0 2.3c5.73 0 10.374 4.645 10.374 10.374 0 5.73-4.645 10.374-10.374 10.374-5.73 0-10.374-4.645-10.374-10.374C13.626 7.794 18.271 3.15 24 3.15zM9.477 29.217h29.046l8.627 8.627v10.154h-2.3v-9.201l-7.28-7.28H10.429L3.15 38.796v9.202H.85V37.844z"/>
        </g>
    </g>
</svg>
