<svg width="48" height="48" viewBox="0 0 48 48" xmlns="http://www.w3.org/2000/svg">
    <g fill="none" fill-rule="evenodd">
        <path d="M0 0h48v48H0z"/>
        <g fill="#000" fill-rule="nonzero">
            <path d="M24 .85c-7 0-12.674 5.674-12.674 12.674 0 7 5.674 12.674 12.674 12.674 7 0 12.674-5.675 12.674-12.674C36.674 6.524 31 .85 24 .85zm0 2.3c5.73 0 10.374 4.645 10.374 10.374 0 5.73-4.645 10.374-10.374 10.374-5.73 0-10.374-4.645-10.374-10.374C13.626 7.794 18.271 3.15 24 3.15zM23.5 29.217v2.3H10.429L3.15 38.796v9.202H.85V37.844l8.627-8.627z"/>
            <g>
                <path d="M47.147 28.998v6a1.15 1.15 0 0 1-1.025 1.144l-.125.006h-6v-2.3h4.849v-4.85h2.3z"/>
                <path d="M30.1 28.112c3.87-2.135 8.666-1.514 11.841 1.481l.214.208 4.63 4.36-1.577 1.674-4.655-4.384a7.85 7.85 0 1 0 1.756 8.415l.093-.25 2.169.765A10.15 10.15 0 1 1 30.1 28.111z"/>
            </g>
        </g>
    </g>
</svg>
