<svg width="48" height="48" viewBox="0 0 48 48" xmlns="http://www.w3.org/2000/svg">
    <g fill="none" fill-rule="evenodd">
        <path d="M0 0h48v48H0z"/>
        <g fill="#000" fill-rule="nonzero">
            <path d="M24 .85c-7 0-12.674 5.674-12.674 12.674 0 7 5.674 12.674 12.674 12.674 7 0 12.674-5.675 12.674-12.674C36.674 6.524 31 .85 24 .85zm0 2.3c5.73 0 10.374 4.645 10.374 10.374 0 5.73-4.645 10.374-10.374 10.374-5.73 0-10.374-4.645-10.374-10.374C13.626 7.794 18.271 3.15 24 3.15zM23.5 29.217v2.3H10.429L3.15 38.796v9.202H.85V37.844l8.627-8.627z"/>
            <g>
                <path d="M45 30.85H27A2.15 2.15 0 0 0 24.85 33v12A2.15 2.15 0 0 0 27 47.15h18A2.15 2.15 0 0 0 47.15 45V33A2.15 2.15 0 0 0 45 30.85zm-.15 2.3v11.7h-17.7v-11.7h17.7z"/>
                <path d="M38 26.85a3.15 3.15 0 0 1 3.145 2.971l.005.179v16a1.15 1.15 0 0 1-2.293.125L38.85 46V30a.85.85 0 0 0-.743-.843L38 29.15h-4a.85.85 0 0 0-.843.743L33.15 30v16a1.15 1.15 0 0 1-2.293.125L30.85 46V30a3.15 3.15 0 0 1 2.971-3.145L34 26.85h4z"/>
            </g>
        </g>
    </g>
</svg>
