<svg width="14" height="14" viewBox="0 0 14 14" xmlns="http://www.w3.org/2000/svg">
    <g fill="none" fill-rule="evenodd">
        <path d="M0 0h14v14H0z"/>
        <g fill="#FFF" fill-rule="nonzero">
            <path d="M7 .73a6.27 6.27 0 1 0 0 12.54A6.27 6.27 0 0 0 7 .73zm0 .874a5.396 5.396 0 1 1 0 10.792A5.396 5.396 0 0 1 7 1.604z"/>
            <path d="M7 3.063c.221 0 .405.164.434.378l.004.059v3.319L9.059 8.44c.156.155.17.398.043.57l-.043.048a.438.438 0 0 1-.57.043l-.048-.043-1.75-1.75a.438.438 0 0 1-.123-.24L6.563 7V3.5c0-.242.195-.437.437-.437z"/>
        </g>
    </g>
</svg>
