<svg width="56" height="56" viewBox="0 0 56 56" xmlns="http://www.w3.org/2000/svg">
    <g fill="none" fill-rule="evenodd">
        <circle fill="#FEDC00" cx="28" cy="28" r="28"/>
        <path d="M28.5 13C18.833 13 11 19.24 11 26.938c0 4.894 3.168 9.195 7.958 11.683l-1.322 6.852 7.568-4.847c1.067.162 2.168.25 3.295.25 9.666 0 17.501-6.24 17.501-13.938S38.165 13 28.5 13" fill="#3D292A"/>
        <path d="m25.187 23.795.044.048.053.06.045.065.04.073.032.078.024.082 3.138 6.9-.212.338-.064.087a.728.728 0 0 1-.159.14l-.094.051-.153.068-.097.036-.1.022-.104.008a.74.74 0 0 1-.397-.114l-.086-.063a.719.719 0 0 1-.19-.254l-.606-1.324H22.9l-.6 1.317-.052.094a.733.733 0 0 1-.225.222l-.093.05a.74.74 0 0 1-.106.037l.106-.037a.744.744 0 0 1-.607-.001l-.15-.07-.095-.05a.734.734 0 0 1-.223-.226l-.049-.093a.75.75 0 0 1-.064-.303l.007-.105a.726.726 0 0 1 .058-.199l2.959-6.486.022-.06.023-.074a.73.73 0 0 1 .067-.138l.014-.02a2 2 0 0 1 .044-.06l.064-.086a.722.722 0 0 1 .162-.139l-.078.057a.741.741 0 0 1 .37-.163l.104-.007h.03a1.473 1.473 0 0 1 .054.004l.036.003.097.011c.063.011.125.03.184.057l.085.046.062.044a.76.76 0 0 1 .125.122l-.044-.048zm11.021-.169a.74.74 0 0 1 .316.132l.088.076.076.088a.743.743 0 0 1 .131.316l.01.115v2.63l3.013-3.143.075-.068a.734.734 0 0 1 .452-.156l.112.008a.75.75 0 0 1 .314.121l.089.072.121.116.068.075.056.082.046.09.03.092.019.095.006.099-.008.113a.726.726 0 0 1-.124.308l-.072.087-2.072 2.162 2.485 3.396.06.098c.036.068.06.142.073.219l.009.116-.009.113a.759.759 0 0 1-.068.216l.034-.081a.766.766 0 0 1-.004.011l-.03.07-.06.1a.724.724 0 0 1-.165.166l.085-.071a.713.713 0 0 1-.024.022l-.061.05-.133.098-.098.06a.744.744 0 0 1-.217.069l-.114.01a.75.75 0 0 1-.334-.074l-.1-.06a.753.753 0 0 1-.167-.164l.065.077a.73.73 0 0 1-.016-.017l-.05-.06-2.313-3.161-.973 1.014v1.708l-.01.115a.744.744 0 0 1-.208.407l-.088.075a.74.74 0 0 1-.432.14h-.165l-.116-.01a.74.74 0 0 1-.406-.205l-.067-.079-.057-.086-.092-.167v-6.898l.009-.115a.742.742 0 0 1 .207-.405l.089-.075a.738.738 0 0 1 .433-.141h.167l.115.01zm-6.882 8.095-.069-.038-.074-.053a.704.704 0 0 1-.125-.129l-.048-.075-.075-.12v-6.953l.01-.115a.748.748 0 0 1 .132-.316l.075-.089.088-.075a.739.739 0 0 1 .317-.132l.116-.01h.168l.114.01a.738.738 0 0 1 .404.208l.075.088c.09.125.141.277.141.43v6.114h3.39l.11.007a.77.77 0 0 1 .301.107l.086.062.075.071.294.33-.204.38-.04.065a.64.64 0 0 1-.1.114l-.09.068a.785.785 0 0 1-.431.128H29.67l-.04-.001-.038-.003-.118-.02a.804.804 0 0 1-.218-.09l.07.037zm-7.925-8.104.11.007c.072.01.141.03.207.06l.095.05.085.06a.7.7 0 0 1 .135.15l.05.086.03.085.02.088.007.089-.007.09-.02.087-.03.084-.045.078-.052.072-.062.065-.09.07a.769.769 0 0 1-.316.122l-.117.009h-1.773v6.092l-.01.115a.745.745 0 0 1-.131.318l-.076.089-.088.075a.741.741 0 0 1-.317.13l-.115.01h-.166l-.115-.01a.74.74 0 0 1-.317-.131l-.089-.076-.075-.088a.738.738 0 0 1-.131-.317l-.01-.115V24.97h-1.793l-.11-.008a.783.783 0 0 1-.207-.058l-.096-.05-.084-.061a.704.704 0 0 1-.134-.151l-.049-.088-.03-.083-.02-.088-.007-.09.007-.09.02-.087.03-.085.044-.077.052-.071.063-.065.089-.07a.756.756 0 0 1 .315-.122l.117-.008H21.4zm3.2 2.75-1.092 2.396h2.186L24.6 26.367z" fill="#FEDC00"/>
    </g>
</svg>
