<svg width="56" height="56" viewBox="0 0 56 56" xmlns="http://www.w3.org/2000/svg">
    <g fill="none" fill-rule="evenodd">
        <circle fill="#1D9BF0" cx="28" cy="28" r="28"/>
        <path d="M44 19.886c-1.104.49-2.292.821-3.537.972a6.192 6.192 0 0 0 2.708-3.406 12.424 12.424 0 0 1-3.91 1.492 6.155 6.155 0 0 0-10.647 4.21c.001.486.056.954.158 1.405-5.116-.257-9.647-2.708-12.685-6.43a6.13 6.13 0 0 0-.832 3.092 6.157 6.157 0 0 0 2.737 5.125 6.17 6.17 0 0 1-2.787-.772v.078a6.165 6.165 0 0 0 4.938 6.037 6.335 6.335 0 0 1-1.62.214c-.403 0-.784-.038-1.161-.11a6.163 6.163 0 0 0 5.753 4.275 12.362 12.362 0 0 1-7.648 2.632c-.494 0-.987-.027-1.467-.083a17.412 17.412 0 0 0 9.435 2.765c11.32 0 17.508-9.38 17.508-17.513 0-.264-.005-.533-.017-.796A12.602 12.602 0 0 0 44 19.886" fill="#FEFEFE"/>
    </g>
</svg>
